<svg version="1.1" xmlns="http://www.w3.org/2000/svg" viewBox="0 0 32 32" style="shape-rendering: crispEdges"><rect x="0" y="0" width="32" height="32" fill="hsl(79,54.63700248859823%,59.74724452244118%)"/><rect x="0" y="0" width="4" height="4" fill="hsl(42,70.63319944776595%,68.95680095767602%)"/><rect x="4" y="0" width="4" height="4" fill="hsl(185,77.98629184253514%,45.821528253145516%)"/><rect x="12" y="0" width="4" height="4" fill="hsl(185,77.98629184253514%,45.821528253145516%)"/><rect x="16" y="0" width="4" height="4" fill="hsl(185,77.98629184253514%,45.821528253145516%)"/><rect x="24" y="0" width="4" height="4" fill="hsl(185,77.98629184253514%,45.821528253145516%)"/><rect x="28" y="0" width="4" height="4" fill="hsl(42,70.63319944776595%,68.95680095767602%)"/><rect x="12" y="4" width="4" height="4" fill="hsl(185,77.98629184253514%,45.821528253145516%)"/><rect x="16" y="4" width="4" height="4" fill="hsl(185,77.98629184253514%,45.821528253145516%)"/><rect x="0" y="8" width="4" height="4" fill="hsl(42,70.63319944776595%,68.95680095767602%)"/><rect x="28" y="8" width="4" height="4" fill="hsl(42,70.63319944776595%,68.95680095767602%)"/><rect x="0" y="12" width="4" height="4" fill="hsl(185,77.98629184253514%,45.821528253145516%)"/><rect x="4" y="12" width="4" height="4" fill="hsl(185,77.98629184253514%,45.821528253145516%)"/><rect x="8" y="12" width="4" height="4" fill="hsl(185,77.98629184253514%,45.821528253145516%)"/><rect x="12" y="12" width="4" height="4" fill="hsl(185,77.98629184253514%,45.821528253145516%)"/><rect x="16" y="12" width="4" height="4" fill="hsl(185,77.98629184253514%,45.821528253145516%)"/><rect x="20" y="12" width="4" height="4" fill="hsl(185,77.98629184253514%,45.821528253145516%)"/><rect x="24" y="12" width="4" height="4" fill="hsl(185,77.98629184253514%,45.821528253145516%)"/><rect x="28" y="12" width="4" height="4" fill="hsl(185,77.98629184253514%,45.821528253145516%)"/><rect x="4" y="16" width="4" height="4" fill="hsl(42,70.63319944776595%,68.95680095767602%)"/><rect x="12" y="16" width="4" height="4" fill="hsl(185,77.98629184253514%,45.821528253145516%)"/><rect x="16" y="16" width="4" height="4" fill="hsl(185,77.98629184253514%,45.821528253145516%)"/><rect x="24" y="16" width="4" height="4" fill="hsl(42,70.63319944776595%,68.95680095767602%)"/><rect x="0" y="24" width="4" height="4" fill="hsl(185,77.98629184253514%,45.821528253145516%)"/><rect x="12" y="24" width="4" height="4" fill="hsl(185,77.98629184253514%,45.821528253145516%)"/><rect x="16" y="24" width="4" height="4" fill="hsl(185,77.98629184253514%,45.821528253145516%)"/><rect x="28" y="24" width="4" height="4" fill="hsl(185,77.98629184253514%,45.821528253145516%)"/><rect x="8" y="28" width="4" height="4" fill="hsl(185,77.98629184253514%,45.821528253145516%)"/><rect x="12" y="28" width="4" height="4" fill="hsl(185,77.98629184253514%,45.821528253145516%)"/><rect x="16" y="28" width="4" height="4" fill="hsl(185,77.98629184253514%,45.821528253145516%)"/><rect x="20" y="28" width="4" height="4" fill="hsl(185,77.98629184253514%,45.821528253145516%)"/></svg>