<svg width="1080" height="1080" viewBox="0 0 1080 1080" fill="none" xmlns="http://www.w3.org/2000/svg">
<g clip-path="url(#clip0_2_46)">
<path d="M777.261 300.671C730.3 306.803 660.952 448.281 632.147 518.254C570.553 538.795 486.895 606.4 494.625 614.318L681.625 730.513L957.958 714.516C979.287 691.272 1063.11 665.355 1035.95 618.016C1002 558.841 901.33 537.225 876.424 513.138C851.518 489.05 835.961 293.005 777.261 300.671Z" fill="black"/>
<ellipse cx="734.159" cy="884.25" rx="406.649" ry="372.346" transform="rotate(-30 734.159 884.25)" fill="black"/>
<path d="M210.462 627.912C239.253 590.309 396.451 600.991 471.451 611.032C520.038 567.96 620.415 529.313 623.407 539.966L630.535 760.01L478.514 991.323C447.72 998.173 383.362 1057.81 355.946 1010.62C321.675 951.628 353.29 853.636 344.882 820.023C336.475 786.41 174.473 674.916 210.462 627.912Z" fill="black"/>
</g>
<rect x="31" y="31" width="1018" height="1018" rx="509" stroke="black" stroke-width="62"/>
<defs>
<clipPath id="clip0_2_46">
<rect width="1080" height="1080" rx="540" fill="white"/>
</clipPath>
</defs>
</svg>
